<svg xmlns="http://www.w3.org/2000/svg" width="384" height="384"><defs><style>.cls-5,.cls-6,.cls-7,.cls-8{fill:none;stroke-linecap:round;stroke-linejoin:round}.cls-5,.cls-6{stroke:#445d82}.cls-5,.cls-8{stroke-width:2px}.cls-7,.cls-8{stroke:#0087e0}</style></defs><g id="Server_Down" data-name="Server Down"><path d="M56.74 337.45c-7.29-.29-37.59 2.13-41.12 3.81s2.51 15.74 170.66 14.46c92.13-.72 114.52-2.93 140-7.82s-48.3-11-50.13-10.7c-1.65.31 1.83 5.24-9.8 7.45-7.79 1.48-68.5.84-98.69.9s-98.94-.28-105.21-2.26c-2.78-.89-5.45-3.52-5.71-5.84z" fill="#dfe8f5"/><path d="M315.67 135c1.63-.8 14.69 6.06 15.52 8.88s-11.31 9.09-14.27 8.95-5.21-.37-4.84-3.17 2.12-13.96 3.59-14.66z" fill="#0087e0" opacity="0.25"/><path class="cls-5" d="M56.76 38c.58-5.63 4.41-8.71 10-9 29.39-1.53 166-1.17 193 .07 8 .37 11.92 4.46 12.74 11.73 1.1 9.74 1.33 33.21-.5 43.21-1.13 6.22-4.81 10-10.13 10.82C241.35 98 88.69 95.5 68.76 93.5 62.46 92.87 58 90.62 57 82.62S55.65 48.73 56.76 38z"/><path class="cls-5" d="M81.19 45.74c-.64 6.17-.57 28.78.08 31.26.38 1.44 6.3 1.24 7 0 .91-1.76.63-26.08 0-31.26-.27-1.87-6.79-2.74-7.08 0z"/><path class="cls-5" d="M101.24 46.58c-.64 6.17-.59 25.37.08 30 .28 2 6.3 1.67 7 .43.91-1.76.63-26.77 0-31.95-.32-1.88-6.79-1.23-7.08 1.52z"/><path class="cls-5" d="M148.42 45.94c.65 6.17.58 28.58-.08 31.06-.38 1.44-6.3 1.24-7 0-.91-1.76-.63-26.31 0-31.49.28-1.87 6.79-2.32 7.08.43z"/><path class="cls-5" d="M232.05 46.74c1.13 1.38.75 6.62-.07 7.68-.6.77-6.3.75-7.37 0s-1.16-6.72 0-7.79c.98-.9 6.69-.81 7.44.11z"/><path class="cls-5" d="M251.05 46.74c1.13 1.38.75 6.62-.07 7.68-.6.77-6.3.75-7.37 0s-1.16-6.72 0-7.79c.98-.9 6.69-.81 7.44.11z"/><path class="cls-5" d="M232.06 67.74c1.13 1.39.74 6.63-.08 7.7-.59.77-6.3.75-7.38 0s-1.16-6.73 0-7.81c.98-.9 6.71-.81 7.46.11z"/><path class="cls-5" d="M251.06 67.74c1.13 1.39.74 6.63-.08 7.7-.59.77-6.3.75-7.38 0s-1.16-6.73 0-7.81c.98-.9 6.71-.81 7.46.11z"/><path class="cls-5" d="M128.37 46c.65 6.17.59 26-.08 30.57-.28 2-6.3 1.67-6.94.43-.92-1.76-.64-26.35 0-31.53.22-1.87 6.73-2.23 7.02.53z"/><path class="cls-5" d="M56.76 121c.58-5.63 4.41-8.71 10-9 29.39-1.53 166-1.17 193 .07 8 .36 11.92 4.46 12.74 11.73 1.1 9.74 1.33 33.21-.5 43.21-1.13 6.22-4.81 10-10.13 10.82-20.51 3.1-173.17.65-193.1-1.34-6.3-.63-10.8-2.88-11.8-10.88s-1.32-33.87-.21-44.61z"/><path class="cls-5" d="M81.19 128.75c-.64 6.17-.57 28.78.08 31.26.38 1.44 6.3 1.24 7 0 .91-1.76.63-26.08 0-31.26-.27-1.87-6.79-2.75-7.08 0z"/><path class="cls-5" d="M101.24 129.59c-.64 6.17-.59 25.37.08 30 .28 2 6.3 1.67 7 .43.91-1.76.63-26.77 0-31.95-.32-1.88-6.79-1.23-7.08 1.52z"/><path class="cls-5" d="M148.42 129c.65 6.17.58 28.58-.08 31.06-.38 1.44-6.3 1.24-7 0-.91-1.76-.63-26.31 0-31.5.28-1.91 6.79-2.36 7.08.44z"/><path class="cls-5" d="M232.05 129.74c1.13 1.39.75 6.63-.07 7.69-.6.77-6.3.75-7.37 0s-1.16-6.72 0-7.79c.98-.9 6.69-.81 7.44.1z"/><path class="cls-5" d="M251.05 129.74c1.13 1.39.75 6.63-.07 7.69-.6.77-6.3.75-7.37 0s-1.16-6.72 0-7.79c.98-.9 6.69-.81 7.44.1z"/><path class="cls-5" d="M232.06 150.75c1.13 1.39.74 6.63-.08 7.7-.59.76-6.3.75-7.38 0s-1.16-6.73 0-7.81c.98-.9 6.71-.81 7.46.11z"/><path class="cls-5" d="M251.06 150.75c1.13 1.39.74 6.63-.08 7.7-.59.76-6.3.75-7.38 0s-1.16-6.73 0-7.81c.98-.9 6.71-.81 7.46.11z"/><path class="cls-5" d="M128.37 129c.65 6.17.59 26-.08 30.57-.28 2-6.3 1.67-6.94.43-.92-1.76-.64-26.35 0-31.54.22-1.85 6.73-2.21 7.02.54z"/><path class="cls-5" d="M56.76 203.33c.58-5.62 4.41-8.71 10-9 29.39-1.52 166-1.17 193 .07 8 .37 11.92 4.46 12.74 11.74 1.1 9.74 1.33 33.21-.5 43.21-1.13 6.22-4.81 10-10.13 10.81-20.51 3.11-173.17.66-193.1-1.33C62.46 258.2 58 256 57 248s-1.35-33.95-.24-44.67z"/><path class="cls-5" d="M81.19 211.06c-.64 6.17-.57 28.79.08 31.26.38 1.45 6.3 1.25 7 0 .91-1.76.63-26.07 0-31.26-.27-1.86-6.79-2.75-7.08 0z"/><path class="cls-5" d="M101.24 211.91c-.64 6.17-.59 25.37.08 30 .28 2 6.3 1.68 7 .43.91-1.76.63-26.76 0-31.95-.32-1.88-6.79-1.24-7.08 1.52z"/><path class="cls-5" d="M148.42 211.27c.65 6.17.58 28.58-.08 31-.38 1.45-6.3 1.25-7 0-.91-1.76-.63-26.31 0-31.49.28-1.78 6.79-2.27 7.08.49z"/><path class="cls-5" d="M232.05 212.06c1.13 1.39.75 6.62-.07 7.68-.6.77-6.3.76-7.37 0s-1.16-6.71 0-7.78c.98-.91 6.69-.82 7.44.1z"/><path class="cls-5" d="M251.05 212.06c1.13 1.39.75 6.62-.07 7.68-.6.77-6.3.76-7.37 0s-1.16-6.71 0-7.78c.98-.91 6.69-.82 7.44.1z"/><path class="cls-5" d="M232.06 233.06c1.13 1.39.74 6.64-.08 7.7-.59.77-6.3.75-7.38 0s-1.16-6.73 0-7.8c.98-.91 6.71-.81 7.46.1z"/><path class="cls-5" d="M251.06 233.06c1.13 1.39.74 6.64-.08 7.7-.59.77-6.3.75-7.38 0s-1.16-6.73 0-7.8c.98-.91 6.71-.81 7.46.1z"/><path class="cls-5" d="M128.37 211.32c.65 6.17.59 26-.08 30.57-.28 2-6.3 1.68-6.94.43-.92-1.76-.64-26.35 0-31.53.22-1.86 6.73-2.22 7.02.53z"/><path class="cls-5" d="M56.76 286.34c.58-5.63 4.41-8.71 10-9 29.39-1.52 166-1.17 193 .07 8 .37 11.92 4.46 12.74 11.74 1.1 9.74 1.33 33.2-.5 43.2-1.13 6.23-4.81 10-10.13 10.82-20.51 3.11-173.17.66-193.1-1.33C62.46 341.21 58 339 57 331s-1.35-33.94-.24-44.66z"/><path class="cls-5" d="M81.19 294.07c-.64 6.17-.57 28.78.08 31.26.38 1.45 6.3 1.25 7 0 .91-1.76.63-26.07 0-31.26-.27-1.86-6.79-2.75-7.08 0z"/><path class="cls-5" d="M101.24 294.92c-.64 6.17-.59 25.37.08 30 .28 2 6.3 1.68 7 .43.91-1.76.63-26.76 0-31.95-.32-1.88-6.79-1.24-7.08 1.52z"/><path class="cls-5" d="M148.42 294.28c.65 6.17.58 28.57-.08 31.05-.38 1.45-6.3 1.25-7 0-.91-1.76-.63-26.31 0-31.49.28-1.84 6.79-2.32 7.08.44z"/><path class="cls-5" d="M232.05 295.07c1.13 1.39.75 6.62-.07 7.68-.6.77-6.3.75-7.37 0s-1.16-6.71 0-7.79c.98-.9 6.69-.81 7.44.11z"/><path class="cls-5" d="M251.05 295.07c1.13 1.39.75 6.62-.07 7.68-.6.77-6.3.75-7.37 0s-1.16-6.71 0-7.79c.98-.9 6.69-.81 7.44.11z"/><path class="cls-5" d="M232.06 316.07c1.13 1.39.74 6.64-.08 7.7-.59.77-6.3.75-7.38 0s-1.16-6.73 0-7.8c.98-.91 6.71-.81 7.46.1z"/><path class="cls-5" d="M251.06 316.07c1.13 1.39.74 6.64-.08 7.7-.59.77-6.3.75-7.38 0s-1.16-6.73 0-7.8c.98-.91 6.71-.81 7.46.1z"/><path class="cls-5" d="M128.37 294.33c.65 6.17.59 26-.08 30.57-.28 2-6.3 1.68-6.94.43-.92-1.76-.64-26.35 0-31.53.22-1.87 6.73-2.22 7.02.53z"/><path class="cls-5" d="M63.76 96.32v12"/><path class="cls-5" d="M63.76 179.32v12"/><path class="cls-5" d="M63.76 261.32v12"/><path class="cls-5" d="M266.76 97.32v12"/><path class="cls-5" d="M266.76 180.32v12"/><path class="cls-5" d="M266.76 262.32v12"/><path class="cls-5" d="M274.91 340.21c28.18-.45 33.25-30.56 52.86-42.68 19.79-12.23 60.07 11 21.29 22.31-31.54 9.21 39.32-64.84 11.28-70.52"/><path class="cls-5" d="M355.46 238.16c16.23-9.31 11.88-36.84-13.12-47.84s-39-29-31-40"/><path class="cls-6" d="M352 236.49a11.7 11.7 0 01-2.5-3.21"/><path class="cls-6" d="M350 238.16a36.59 36.59 0 00-5.43-1.76"/><path class="cls-6" d="M349.64 240.43a4.6 4.6 0 00-2.17.68"/><path class="cls-6" d="M353.71 252.39a8.29 8.29 0 00-3 1.8"/><path class="cls-6" d="M355.65 254.45c-1.14 1.8-2.25 3.77-3 4.74"/><path class="cls-6" d="M357.83 255.18a9.66 9.66 0 00.23 3.35"/><path class="cls-7" d="M317.66 143.71a7.13 7.13 0 00-3-1.79"/><path class="cls-7" d="M316 145.22a3.82 3.82 0 00-1.62-1"/><path class="cls-8" d="M309.89 148.48c.49 1.21 4.43 2.81 5.39 2.58 2.05-.49 12.33-6.8 12.3-8.43 0-2.16-11.71-10-13.93-9.57-2.59.53-4.38 13.94-3.76 15.42z"/><path class="cls-8" d="M316.7 133.72c.29-.47 4.62-6.52 5.05-6.9 1.14-1 2.81-.18 2.26.71s-4.63 7.16-5.05 7.45"/><path class="cls-8" d="M323.23 138c.44-.84 5.59-7.88 6.17-8.21s2.82 1 2.23 1.81c-.5.7-6 8.1-6.14 8.18"/><path class="cls-6" d="M317.94 297.91c1-1.75 4.74-5.89 7-7.1"/><path class="cls-6" d="M304.47 146.69c-.57-1.94-1-7.49-.34-10"/><path class="cls-6" d="M300.12 141v-6"/><path class="cls-6" d="M315.43 294.77c.68-1.31 2.7-4.34 3-4.76"/><path class="cls-6" d="M64.63 328.55c0 5.09.76 7.37 12.6 7.37"/><path class="cls-6" d="M252 89.41c8.32.28 13.54-2.45 14-6.78"/><path class="cls-6" d="M176.8 39.11c-1.36 2.17-2.62 4.5-3.53 5.64"/><path class="cls-6" d="M180.62 39.11a24.9 24.9 0 01-2.28 4.06"/><path class="cls-6" d="M66.92 219.79c-1 1.71-1.93 3.59-2.67 4.79"/><path class="cls-6" d="M66.92 225c-.85 1-2 3.7-2.67 4.27"/><path class="cls-6" d="M66.35 230.9c-.51.8-1.36 2.22-1.7 2.74"/><path class="cls-6" d="M51 113.54a25.13 25.13 0 00-1.37 8.32"/><path class="cls-6" d="M48 112a15 15 0 00-.92 7.41"/></g></svg>