<svg xmlns="http://www.w3.org/2000/svg" width="384" height="384"><defs><style>.cls-4,.cls-5,.cls-7{fill:none;stroke-linecap:round;stroke-linejoin:round}.cls-4,.cls-5{stroke:#445d82}.cls-4{stroke-width:2px}.cls-7{stroke:#ff6b77}</style></defs><g id="Server_Error" data-name="Server Error"><path d="M76.69 345c-7.3-.33-37.59 2.47-41.12 4.43s2.5 18.3 170.65 16.77c92.14-.84 114.53-3.4 140-9.07 25.67-5.71-48.3-12.82-50.12-12.41-1.66.36 1.82 6.08-9.8 8.64-7.8 1.71-68.51 1-98.7 1.05s-98.88-.41-105.16-2.68c-2.82-1.03-5.53-4.08-5.75-6.73z" fill="#dfe8f5"/><path class="cls-4" d="M76.71 130c.58-5.63 4.41-8.71 10-9 29.39-1.52 166-1.17 193 .07 8 .37 11.93 4.46 12.75 11.74 1.1 9.74 1.32 33.2-.5 43.2-1.14 6.23-4.81 10-10.14 10.82-20.5 3.11-173.16.66-193.1-1.34-6.29-.62-10.79-2.87-11.79-10.87s-1.33-33.93-.22-44.62z"/><path class="cls-4" d="M100.45 137.7c-.65 6.17-.58 28.78.07 31.26.38 1.45 6.31 1.25 7 0 .91-1.76.64-26.07 0-31.26-.28-1.86-6.78-2.7-7.07 0z"/><path class="cls-4" d="M120.5 138.55c-.65 6.17-.59 25.37.07 30 .29 2 6.31 1.68 7 .43.91-1.76.63-26.76 0-32-.28-1.83-6.79-1.19-7.07 1.57z"/><path class="cls-4" d="M167.68 137.91c.64 6.17.57 28.57-.08 31.05-.38 1.45-6.31 1.25-6.95 0-.91-1.76-.63-26.31 0-31.49.23-1.87 6.74-2.32 7.03.44z"/><path class="cls-4" d="M252.29 138.74c1.14 1.39.75 6.62-.07 7.68-.59.77-6.29.75-7.37 0s-1.16-6.71 0-7.79c.98-.9 6.7-.81 7.44.11z"/><path class="cls-4" d="M271.29 138.74c1.14 1.39.75 6.62-.07 7.68-.59.77-6.29.75-7.37 0s-1.16-6.71 0-7.79c.98-.9 6.7-.81 7.44.11z"/><path class="cls-4" d="M252.3 159.74c1.13 1.39.75 6.64-.07 7.7-.6.77-6.31.75-7.38 0s-1.17-6.73 0-7.8c.98-.91 6.7-.81 7.45.1z"/><path class="cls-4" d="M271.3 159.74c1.13 1.39.75 6.64-.07 7.7-.6.77-6.31.75-7.38 0s-1.17-6.73 0-7.8c.98-.91 6.7-.81 7.45.1z"/><path class="cls-4" d="M147.63 138c.64 6.17.58 26-.08 30.57-.29 2-6.31 1.68-7 .43-.91-1.76-.63-26.35 0-31.53.28-1.91 6.79-2.26 7.08.53z"/><path class="cls-4" d="M76.71 212.29c.58-5.63 4.41-8.71 10-9 29.39-1.53 166-1.17 193 .07 8 .36 11.93 4.46 12.75 11.73 1.1 9.74 1.32 33.21-.5 43.21-1.14 6.22-4.81 10-10.14 10.82-20.5 3.1-173.16.65-193.1-1.34-6.29-.63-10.79-2.88-11.79-10.88s-1.33-33.9-.22-44.61z"/><path class="cls-4" d="M100.45 220c-.65 6.17-.58 28.78.07 31.26.38 1.44 6.31 1.24 7 0 .91-1.76.64-26.08 0-31.26-.28-1.85-6.78-2.74-7.07 0z"/><path class="cls-4" d="M120.5 220.86c-.65 6.17-.59 25.37.07 30 .29 2 6.31 1.67 7 .43.91-1.76.63-26.77 0-31.95-.28-1.88-6.79-1.23-7.07 1.52z"/><path class="cls-4" d="M167.68 220.22c.64 6.17.57 28.58-.08 31.06-.38 1.44-6.31 1.24-6.95 0-.91-1.76-.63-26.31 0-31.5.23-1.86 6.74-2.31 7.03.44z"/><path class="cls-4" d="M252.3 220.73c1.13 1.39.75 6.62-.07 7.68-.6.77-6.3.75-7.37 0s-1.16-6.71 0-7.79c.98-.9 6.69-.81 7.44.11z"/><path class="cls-4" d="M271.3 220.73c1.13 1.39.75 6.62-.07 7.68-.6.77-6.3.75-7.37 0s-1.16-6.71 0-7.79c.98-.9 6.69-.81 7.44.11z"/><path class="cls-4" d="M252.31 241.73c1.13 1.39.74 6.64-.08 7.7-.59.77-6.3.75-7.38 0s-1.16-6.73 0-7.8c.98-.91 6.71-.81 7.46.1z"/><path class="cls-4" d="M271.31 241.73c1.13 1.39.74 6.64-.08 7.7-.59.77-6.3.75-7.38 0s-1.16-6.73 0-7.8c.98-.91 6.71-.81 7.46.1z"/><path class="cls-4" d="M147.63 220.28c.64 6.17.58 25.95-.08 30.57-.29 2-6.31 1.67-7 .43-.91-1.76-.63-26.35 0-31.54.28-1.86 6.79-2.22 7.08.54z"/><path class="cls-4" d="M76.71 295.3c.58-5.63 4.41-8.71 10-9 29.39-1.53 166-1.17 193 .07 8 .36 11.93 4.45 12.75 11.73 1.1 9.74 1.32 33.21-.5 43.21-1.14 6.22-4.81 10-10.14 10.81-20.5 3.11-173.16.66-193.1-1.33-6.29-.63-10.79-2.88-11.79-10.88S75.6 306 76.71 295.3z"/><path class="cls-4" d="M100.45 303c-.65 6.17-.58 28.78.07 31.26.38 1.44 6.31 1.24 7 0 .91-1.76.64-26.08 0-31.26-.28-1.84-6.78-2.73-7.07 0z"/><path class="cls-4" d="M120.5 303.87c-.65 6.17-.59 25.37.07 30 .29 2 6.31 1.67 7 .43.91-1.76.63-26.77 0-32-.28-1.83-6.79-1.19-7.07 1.57z"/><path class="cls-4" d="M167.68 303.23c.64 6.17.57 28.58-.08 31.06-.38 1.44-6.31 1.24-6.95 0-.91-1.76-.63-26.31 0-31.5.23-1.86 6.74-2.32 7.03.44z"/><path class="cls-4" d="M252.3 304.74c1.13 1.39.75 6.63-.07 7.69-.6.77-6.3.75-7.37 0s-1.16-6.72 0-7.79c.98-.9 6.69-.81 7.44.1z"/><path class="cls-4" d="M271.3 304.74c1.13 1.39.75 6.63-.07 7.69-.6.77-6.3.75-7.37 0s-1.16-6.72 0-7.79c.98-.9 6.69-.81 7.44.1z"/><path class="cls-4" d="M252.31 325.75c1.13 1.39.74 6.63-.08 7.69-.59.77-6.3.76-7.38 0s-1.16-6.72 0-7.8c.98-.9 6.71-.81 7.46.11z"/><path class="cls-4" d="M271.31 325.75c1.13 1.39.74 6.63-.08 7.69-.59.77-6.3.76-7.38 0s-1.16-6.72 0-7.8c.98-.9 6.71-.81 7.46.11z"/><path class="cls-4" d="M147.63 303.29c.64 6.17.58 25.95-.08 30.57-.29 2-6.31 1.67-7 .43-.91-1.76-.63-26.35 0-31.54.28-1.86 6.79-2.22 7.08.54z"/><path class="cls-4" d="M83.71 188.28v12"/><path class="cls-4" d="M83.71 270.28v12"/><path class="cls-4" d="M286.71 189.28v12"/><path class="cls-4" d="M286.71 271.28v12"/><path class="cls-4" d="M162.67 120a255.7 255.7 0 01-36.3-1.93c-3.05-.39-4.93-1.89-5.25-3.83-.26-1.59-.48-4.85 0-5.88.64-1.33 150.9-2.19 152.62-.1.88 1.06 1.43 4.92 1.43 6 0 2.45-1.29 3.61-5.68 4.11-6.63.76-21.19 1.64-38.65 1.88"/><path class="cls-5" d="M168.33 107.17c0 2.66 1 4.07 3.55 4.55 5.87 1.08 45.85.93 51.22.21 3.75-.5 4-2.24 4-4.9"/><path class="cls-4" d="M139.36 107.57c-3.76 0-5.34-3.27-5.72-6.31-2.39-19-3.59-53.41-2.15-68.29.77-7.94 4.24-10 11.41-10.81 24.82-2.95 81.42-2.5 108.54-.83 8.94.54 12.05 2.9 13.13 12.53 1.54 13.6.2 47.56-2.39 66.55-.36 2.69-1.12 6.86-4.45 6.9"/><path class="cls-5" d="M258.49 85c-.22 15.83-1 17.46-6.78 17.46"/><path class="cls-5" d="M136.52 60.55c-.13 6.89.48 16.08.95 21.44"/><path class="cls-5" d="M131.23 20.28l-5.8-7.46"/><path class="cls-5" d="M124.25 19.52l4.55 2.96"/><path class="cls-5" d="M133.68 15.99v2.91"/><path d="M194.18 41.72c3.42-4.29 4.33-3.11 6.75.18 4.64 6.3 18.37 27.82 21.68 36.27 1.17 3-.4 6.48-4.65 6.89-17.74 1.71-39.5.59-44-.51-2.78-.69-3.74-3.09-2.43-5.81 3.03-6.3 18.38-31.65 22.65-37.02z" stroke="#ff6b77" stroke-width="2px" fill="none" stroke-linecap="round" stroke-linejoin="round"/><path class="cls-7" d="M194.6 56.05a77.2 77.2 0 00.4 12.89c.12.86 2.94.68 3.22-.27a60.4 60.4 0 001.28-13.19c-.12-1.76-4.77-.93-4.9.57z"/><path class="cls-7" d="M196.2 72.48c1.2 0 3.27 1.34 3.24 3.19a3.27 3.27 0 01-3 2.82 2.73 2.73 0 01-3-2.74c-.08-1.49 1.65-3.27 2.76-3.27z"/><g opacity="0.25"><path d="M227.14 79.19C224.63 71.48 211.41 46.76 200 42c-3.16-1.33-27.33 41.4-26.2 43.25 2.92 4.78 43 3.66 49.29 2.66 5.25-.85 5.03-5.71 4.05-8.72zM198 79a2.73 2.73 0 01-3-2.74c0-1.47 1.69-3.26 2.8-3.26s3.26 1.33 3.24 3.18A3.27 3.27 0 01198 79zm1.76-9.82c-.28 1-3.1 1.14-3.22.28a77.23 77.23 0 01-.35-12.89c.14-1.51 4.78-2.34 4.85-.57a59.75 59.75 0 01-1.28 13.19z" fill="#ff6b77"/></g><path class="cls-5" d="M83.67 338.44c0 5.09.76 7.37 12.61 7.37"/><path class="cls-5" d="M272 180c8.31.28 13.53-2.45 14-6.78"/><path class="cls-5" d="M195.18 129.36c-1.36 2.17-2.62 4.5-3.53 5.64"/><path class="cls-5" d="M199 129.36a24.9 24.9 0 01-2.28 4.06"/><path class="cls-5" d="M86 229.68c-1 1.71-1.94 3.59-2.68 4.79"/><path class="cls-5" d="M86 234.92c-.85 1-2 3.71-2.68 4.28"/><path class="cls-5" d="M85.4 240.79c-.51.8-1.37 2.22-1.71 2.74"/><path class="cls-5" d="M70 123.43a25.13 25.13 0 00-1.37 8.32"/><path class="cls-5" d="M67.05 121.89a15 15 0 00-.93 7.41"/></g></svg>