<svg width="384" height="384" viewBox="0 0 384 384" fill="none" xmlns="http://www.w3.org/2000/svg">
<g clip-path="url(#clip0_210_278)">
<path opacity="0.16" d="M77.8726 190.11C80.2876 185.062 149.76 182.707 160.808 182.055C171.855 181.402 193.455 184.155 208.493 185.25C223.53 186.337 214.358 237.442 203.243 239.25C192.128 241.057 92.7901 238.875 85.8451 236.7C78.8926 234.525 78.7801 232.455 77.9851 226.792C77.1901 221.13 76.0501 193.92 77.8726 190.11V190.11Z" fill="#4C545B"/>
<path opacity="0.16" d="M80.5802 121.867C82.9952 116.82 144.863 113.16 155.918 112.5C166.965 111.847 227.58 114.75 242.618 115.837C257.655 116.925 253.545 134.677 252.758 141.742C251.258 155.242 248.258 153.742 231.758 157.492C222.765 159.54 226.395 167.782 220.508 168.742C209.393 170.55 95.5052 170.625 88.5602 168.45C81.6077 166.275 81.4952 164.205 80.7002 158.542C79.9052 152.88 78.7652 125.67 80.5877 121.86L80.5802 121.867Z" fill="#4C545B"/>
<path opacity="0.16" d="M85.0501 48.3975C87.4651 43.35 156.938 40.995 167.985 40.3425C179.033 39.69 229.568 41.1075 244.613 42.195C259.65 43.2825 257.093 61.17 256.5 68.2575C255.75 77.2575 252.743 91.5 238.5 99.0075C228.63 104.212 99.9751 97.1625 93.0301 94.9875C86.0776 92.8125 85.9651 90.7425 85.1701 85.08C84.3751 79.4175 83.2351 52.2075 85.0576 48.3975H85.0501Z" fill="#4C545B"/>
<path opacity="0.16" d="M80.04 266.25C83.2875 253.515 153.578 259.717 164.625 259.065C175.673 258.412 181.418 257.197 196.455 258.285C211.493 259.372 201.81 277.17 202.492 284.242C203.175 291.315 198.517 311.317 187.403 313.125C176.288 314.932 95.1825 311.85 88.23 309.675C81.2775 307.5 81.165 305.43 80.37 299.767C79.575 294.105 78.99 270.315 80.025 266.242L80.04 266.25Z" fill="#4C545B"/>
<path d="M70.1327 51.195C70.6352 46.3575 73.9202 43.71 78.7277 43.4625C103.995 42.15 221.43 42.4575 244.613 43.5225C251.483 43.8375 254.865 47.355 255.57 53.61C256.515 61.98 256.71 82.155 255.143 90.75C254.168 96.0975 251.01 99.3525 246.428 100.05C228.803 102.72 97.5827 100.62 80.4452 98.9025C75.0377 98.3625 71.1677 96.4275 70.3127 89.55C69.4502 82.6725 69.1877 60.42 70.1402 51.2025L70.1327 51.195Z" stroke="#4C545B" stroke-width="2" stroke-linecap="round" stroke-linejoin="round"/>
<path d="M91.1328 57.84C90.5778 63.1425 90.6378 82.5825 91.2003 84.7125C91.5303 85.9575 96.6228 85.785 97.1703 84.7125C97.9503 83.1975 97.7178 62.295 97.1703 57.84C96.9753 56.235 91.3803 55.47 91.1328 57.84Z" stroke="#4C545B" stroke-width="2" stroke-linecap="round" stroke-linejoin="round"/>
<path d="M108.368 58.5675C107.813 63.87 107.865 80.3775 108.435 84.345C108.683 86.0625 113.858 85.785 114.405 84.7125C115.185 83.1975 114.953 61.7025 114.405 57.2475C114.21 55.6425 108.615 56.1975 108.368 58.5675V58.5675Z" stroke="#4C545B" stroke-width="2" stroke-linecap="round" stroke-linejoin="round"/>
<path d="M148.92 58.0125C149.475 63.315 149.415 82.575 148.853 84.705C148.523 85.95 143.43 85.7775 142.883 84.705C142.103 83.19 142.335 62.0925 142.883 57.6375C143.078 56.0325 148.673 55.6425 148.92 58.0125Z" stroke="#4C545B" stroke-width="2" stroke-linecap="round" stroke-linejoin="round"/>
<path d="M220.808 58.695C221.783 59.8875 221.445 64.3875 220.748 65.3025C220.238 65.9625 215.333 65.9475 214.418 65.3025C213.51 64.665 213.42 59.5275 214.418 58.605C215.258 57.8325 220.17 57.9075 220.815 58.695H220.808Z" stroke="#4C545B" stroke-width="2" stroke-linecap="round" stroke-linejoin="round"/>
<path d="M237.135 58.695C238.11 59.8875 237.773 64.3875 237.075 65.3025C236.565 65.9625 231.66 65.9475 230.745 65.3025C229.83 64.6575 229.748 59.5275 230.745 58.605C231.585 57.8325 236.498 57.9075 237.143 58.695H237.135Z" stroke="#4C545B" stroke-width="2" stroke-linecap="round" stroke-linejoin="round"/>
<path d="M220.808 76.7475C221.783 77.94 221.453 82.455 220.748 83.3625C220.238 84.0225 215.325 84.0075 214.403 83.3625C213.48 82.7175 213.398 77.58 214.403 76.6575C215.243 75.8775 220.17 75.96 220.808 76.7475V76.7475Z" stroke="#4C545B" stroke-width="2" stroke-linecap="round" stroke-linejoin="round"/>
<path d="M237.143 76.7475C238.118 77.94 237.788 82.455 237.083 83.3625C236.573 84.0225 231.66 84.0075 230.738 83.3625C229.815 82.7175 229.733 77.58 230.738 76.6575C231.578 75.8775 236.505 75.96 237.143 76.7475V76.7475Z" stroke="#4C545B" stroke-width="2" stroke-linecap="round" stroke-linejoin="round"/>
<path d="M131.685 58.065C132.24 63.3675 132.188 80.3775 131.618 84.345C131.37 86.0625 126.195 85.785 125.648 84.7125C124.868 83.1975 125.1 62.0625 125.648 57.6075C125.843 56.0025 131.438 55.695 131.685 58.065Z" stroke="#4C545B" stroke-width="2" stroke-linecap="round" stroke-linejoin="round"/>
<path d="M220.74 172.522C176.603 173.16 93.8102 171.585 80.4452 170.25C75.0377 169.71 71.1677 167.775 70.3127 160.897C69.4577 154.02 69.1877 131.767 70.1401 122.55C70.6426 117.712 73.9277 115.065 78.7352 114.817C104.003 113.505 221.438 113.812 244.62 114.877C251.49 115.192 254.873 118.71 255.578 124.965C256.275 131.175 256.568 143.88 256.028 153.532" stroke="#4C545B" stroke-width="2" stroke-linecap="round" stroke-linejoin="round"/>
<path d="M91.1328 129.195C90.5778 134.497 90.6378 153.937 91.2003 156.067C91.5303 157.312 96.6228 157.14 97.1703 156.067C97.9503 154.552 97.7178 133.65 97.1703 129.195C96.9753 127.59 91.3803 126.825 91.1328 129.195Z" stroke="#4C545B" stroke-width="2" stroke-linecap="round" stroke-linejoin="round"/>
<path d="M108.368 129.915C107.813 135.217 107.865 151.725 108.435 155.692C108.683 157.41 113.858 157.132 114.405 156.06C115.185 154.545 114.953 133.05 114.405 128.595C114.21 126.99 108.615 127.545 108.368 129.915Z" stroke="#4C545B" stroke-width="2" stroke-linecap="round" stroke-linejoin="round"/>
<path d="M148.92 129.367C149.475 134.67 149.415 153.93 148.853 156.06C148.523 157.305 143.43 157.132 142.883 156.06C142.103 154.545 142.335 133.447 142.883 128.992C143.078 127.387 148.673 126.997 148.92 129.367Z" stroke="#4C545B" stroke-width="2" stroke-linecap="round" stroke-linejoin="round"/>
<path d="M220.808 130.05C221.783 131.242 221.445 135.742 220.748 136.657C220.238 137.317 215.333 137.302 214.418 136.657C213.51 136.02 213.42 130.882 214.418 129.96C215.258 129.187 220.17 129.262 220.815 130.05H220.808Z" stroke="#4C545B" stroke-width="2" stroke-linecap="round" stroke-linejoin="round"/>
<path d="M237.135 130.05C238.11 131.242 237.773 135.742 237.075 136.657C236.565 137.317 231.66 137.302 230.745 136.657C229.83 136.012 229.748 130.882 230.745 129.96C231.585 129.187 236.498 129.262 237.143 130.05H237.135Z" stroke="#4C545B" stroke-width="2" stroke-linecap="round" stroke-linejoin="round"/>
<path d="M220.808 148.102C221.783 149.295 221.453 153.81 220.748 154.717C220.238 155.377 215.325 155.362 214.403 154.717C213.488 154.08 213.398 148.935 214.403 148.012C215.243 147.232 220.17 147.315 220.808 148.102V148.102Z" stroke="#4C545B" stroke-width="2" stroke-linecap="round" stroke-linejoin="round"/>
<path d="M237.143 148.102C238.118 149.295 237.788 153.81 237.083 154.717C236.573 155.377 231.66 155.362 230.738 154.717C229.823 154.08 229.733 148.935 230.738 148.012C231.578 147.232 236.505 147.315 237.143 148.102V148.102Z" stroke="#4C545B" stroke-width="2" stroke-linecap="round" stroke-linejoin="round"/>
<path d="M131.685 129.412C132.24 134.715 132.188 151.725 131.618 155.692C131.37 157.41 126.195 157.132 125.648 156.06C124.868 154.545 125.1 133.41 125.648 128.955C125.843 127.35 131.438 127.042 131.685 129.412Z" stroke="#4C545B" stroke-width="2" stroke-linecap="round" stroke-linejoin="round"/>
<path d="M208.268 243.397C162.578 243.645 92.6326 242.227 80.4376 241.005C75.0301 240.465 71.1601 238.53 70.3051 231.652C69.4426 224.775 69.1801 202.522 70.1326 193.305C70.6351 188.467 73.9201 185.82 78.7276 185.572C98.1976 184.56 172.41 184.515 216.038 185.032" stroke="#4C545B" stroke-width="2" stroke-linecap="round" stroke-linejoin="round"/>
<path d="M91.1325 199.95C90.5775 205.252 90.6375 224.692 91.2 226.822C91.53 228.067 96.6225 227.895 97.17 226.822C97.95 225.307 97.7175 204.405 97.17 199.95C96.975 198.345 91.38 197.58 91.1325 199.95Z" stroke="#4C545B" stroke-width="2" stroke-linecap="round" stroke-linejoin="round"/>
<path d="M108.368 200.678C107.813 205.98 107.865 222.488 108.435 226.455C108.683 228.173 113.858 227.895 114.405 226.822C115.185 225.307 114.953 203.813 114.405 199.358C114.21 197.753 108.615 198.308 108.368 200.678Z" stroke="#4C545B" stroke-width="2" stroke-linecap="round" stroke-linejoin="round"/>
<path d="M148.92 200.122C149.475 205.425 149.415 224.685 148.853 226.815C148.523 228.06 143.43 227.887 142.883 226.815C142.103 225.3 142.335 204.202 142.883 199.747C143.078 198.142 148.673 197.752 148.92 200.122V200.122Z" stroke="#4C545B" stroke-width="2" stroke-linecap="round" stroke-linejoin="round"/>
<path d="M131.685 200.175C132.24 205.477 132.188 222.487 131.618 226.455C131.37 228.172 126.195 227.895 125.648 226.822C124.868 225.307 125.1 204.172 125.648 199.717C125.843 198.112 131.438 197.805 131.685 200.175V200.175Z" stroke="#4C545B" stroke-width="2" stroke-linecap="round" stroke-linejoin="round"/>
<path d="M197.76 314.775C152.543 314.783 91.7326 313.485 80.4376 312.353C75.0301 311.813 71.1601 309.878 70.3051 303C69.4426 296.123 69.1801 273.87 70.1326 264.653C70.6351 259.815 73.9201 257.168 78.7276 256.92C96.6976 255.99 161.318 255.87 205.463 256.268" stroke="#4C545B" stroke-width="2" stroke-linecap="round" stroke-linejoin="round"/>
<path d="M91.1325 271.305C90.5775 276.607 90.6375 296.047 91.2 298.177C91.53 299.422 96.6225 299.25 97.17 298.177C97.95 296.662 97.7175 275.76 97.17 271.305C96.975 269.7 91.38 268.935 91.1325 271.305Z" stroke="#4C545B" stroke-width="2" stroke-linecap="round" stroke-linejoin="round"/>
<path d="M108.368 272.025C107.813 277.327 107.865 293.835 108.435 297.802C108.683 299.52 113.858 299.242 114.405 298.17C115.185 296.655 114.953 275.16 114.405 270.705C114.21 269.1 108.615 269.655 108.368 272.025Z" stroke="#4C545B" stroke-width="2" stroke-linecap="round" stroke-linejoin="round"/>
<path d="M148.92 271.478C149.475 276.78 149.415 296.04 148.853 298.17C148.523 299.415 143.43 299.243 142.883 298.17C142.103 296.655 142.335 275.558 142.883 271.103C143.078 269.498 148.673 269.108 148.92 271.478Z" stroke="#4C545B" stroke-width="2" stroke-linecap="round" stroke-linejoin="round"/>
<path d="M131.685 271.523C132.24 276.825 132.188 293.835 131.618 297.803C131.37 299.52 126.195 299.243 125.648 298.17C124.868 296.655 125.1 275.52 125.648 271.065C125.843 269.46 131.438 269.153 131.685 271.523V271.523Z" stroke="#4C545B" stroke-width="2" stroke-linecap="round" stroke-linejoin="round"/>
<path d="M76.1475 101.325V111.638" stroke="#4C545B" stroke-width="2" stroke-linecap="round" stroke-linejoin="round"/>
<path d="M76.1475 172.665V182.977" stroke="#4C545B" stroke-width="2" stroke-linecap="round" stroke-linejoin="round"/>
<path d="M76.1475 243.15V253.463" stroke="#4C545B" stroke-width="2" stroke-linecap="round" stroke-linejoin="round"/>
<path d="M250.643 102.18V112.492" stroke="#4C545B" stroke-width="2" stroke-linecap="round" stroke-linejoin="round"/>
<path d="M229.275 332.01C226.14 332.55 211.793 333.21 205.44 332.782C202.5 332.587 200.978 330.397 201.173 327.772C202.943 303.69 223.845 184.477 227.97 168.937C228.915 165.375 230.04 161.872 234.975 161.115C247.868 159.142 277.898 159.832 298.275 162.832C302.948 163.522 304.155 165.187 305.093 168.705C312.473 196.357 325.395 294.285 327.548 337.44C327.668 339.855 309.855 341.685 304.238 341.227C301.665 341.017 301.89 336.375 299.175 336.232C292.29 335.872 271.335 336.817 266.595 338.52C264.165 339.39 265.838 343.777 262.178 344.64C256.74 345.922 243.015 346.755 238.425 345.997C235.028 345.435 232.905 344.062 232.65 340.545C230.693 313.942 229.515 215.265 231.278 172.762C231.503 167.302 231.765 163.365 236.273 160.987" stroke="#4C545B" stroke-width="2" stroke-linecap="round" stroke-linejoin="round"/>
<path d="M231.338 171.487C255.788 169.47 290.903 170.617 306.075 172.71" stroke="#4C545B" stroke-width="2" stroke-linecap="round" stroke-linejoin="round"/>
<path d="M251.948 170.625C251.948 173.76 252.975 178.05 257.04 179.325C261.63 180.765 282.96 180.96 286.545 179.197C289.103 177.945 290.063 172.957 289.8 171.255" stroke="#4C545B" stroke-width="2" stroke-linecap="round" stroke-linejoin="round"/>
<path d="M254.153 176.955C260.4 178.132 279.158 178.192 282.503 176.55C284.175 175.725 285.165 173.302 285.578 171.247" stroke="#4C545B" stroke-width="2" stroke-linecap="round" stroke-linejoin="round"/>
<path d="M239.805 197.407C239.73 195.052 239.543 192.188 241.898 192.188C244.253 192.188 299.363 192.315 301.38 192.84C303.398 193.365 316.32 297.165 316.455 302.775C316.59 308.385 246.075 309.3 243.99 308.393C241.905 307.485 239.873 199.237 239.813 197.407H239.805Z" stroke="#4C545B" stroke-miterlimit="10"/>
<path d="M276.45 284.16C271.02 284.542 259.11 284.917 255.638 284.865" stroke="#4C545B" stroke-width="2" stroke-linecap="round" stroke-linejoin="round"/>
<path d="M288.555 292.185C282.105 292.327 257.153 293.475 255.705 293.422" stroke="#4C545B" stroke-width="2" stroke-linecap="round" stroke-linejoin="round"/>
<path d="M284.138 201.48C280.92 201.263 277.545 201.42 274.463 201.593" stroke="#4C545B" stroke-width="2" stroke-linecap="round" stroke-linejoin="round"/>
<path d="M266.475 201.555C262.785 201.615 257.378 201.54 252.203 201.48" stroke="#4C545B" stroke-width="2" stroke-linecap="round" stroke-linejoin="round"/>
<path d="M260.543 340.162C260.715 336.787 262.965 334.507 267.593 333.945" stroke="#4C545B" stroke-linecap="round" stroke-linejoin="round"/>
<path d="M306.923 160.208C308.003 161.385 310.778 164.813 311.49 169.935" stroke="#4C545B" stroke-linecap="round" stroke-linejoin="round"/>
<path d="M311.498 159.81C312.315 161.572 313.29 165.817 313.485 167.317" stroke="#4C545B" stroke-linecap="round" stroke-linejoin="round"/>
<path d="M205.463 325.05C204.72 326.91 204.923 329.618 207.63 329.753" stroke="#4C545B" stroke-linecap="round" stroke-linejoin="round"/>
<path d="M77.55 301.642C77.55 306.015 78.2025 307.972 88.3875 307.972" stroke="#4C545B" stroke-linecap="round" stroke-linejoin="round"/>
<path d="M238.605 96.075C245.753 96.3225 250.238 93.9675 250.643 90.2475" stroke="#4C545B" stroke-linecap="round" stroke-linejoin="round"/>
<path d="M173.978 52.845C172.8 54.705 171.728 56.715 170.94 57.69" stroke="#4C545B" stroke-linecap="round" stroke-linejoin="round"/>
<path d="M177.255 52.845C176.768 53.8725 175.785 55.815 175.298 56.3325" stroke="#4C545B" stroke-linecap="round" stroke-linejoin="round"/>
<path d="M79.5225 208.155C78.6375 209.625 77.8575 211.237 77.22 212.265" stroke="#4C545B" stroke-linecap="round" stroke-linejoin="round"/>
<path d="M79.5225 212.662C78.7875 213.547 77.76 215.842 77.22 216.337" stroke="#4C545B" stroke-linecap="round" stroke-linejoin="round"/>
<path d="M79.0352 217.702C78.5927 218.385 77.8577 219.615 77.5652 220.05" stroke="#4C545B" stroke-linecap="round" stroke-linejoin="round"/>
<path d="M65.7976 116.82C65.1451 118.32 64.6201 121.455 64.6201 123.967" stroke="#4C545B" stroke-linecap="round" stroke-linejoin="round"/>
<path d="M63.2551 115.5C62.4901 116.932 62.1751 120.195 62.4601 121.875" stroke="#4C545B" stroke-linecap="round" stroke-linejoin="round"/>
<path d="M281.43 221.565C278.273 217.605 277.433 218.692 275.198 221.73C270.923 227.55 258.248 247.402 255.195 255.202C254.108 257.977 255.563 261.187 259.478 261.562C275.85 263.137 295.943 262.102 300.083 261.09C302.655 260.46 303.533 258.24 302.325 255.727C299.535 249.915 285.368 226.515 281.43 221.565V221.565Z" stroke="#D45064" stroke-width="2" stroke-linecap="round" stroke-linejoin="round"/>
<path d="M281.048 234.787C281.34 238.005 281.063 244.38 280.725 246.682C280.605 247.477 278.01 247.305 277.748 246.435C277.133 244.357 276.435 237.855 276.57 234.262C276.63 232.635 280.92 233.4 281.048 234.787Z" stroke="#D45064" stroke-linecap="round" stroke-linejoin="round"/>
<path d="M279.57 249.96C278.468 249.96 276.563 251.19 276.578 252.9C276.585 253.815 277.643 255.42 279.375 255.502C281.108 255.585 282.03 254.34 282.105 252.975C282.188 251.61 280.59 249.967 279.563 249.967L279.57 249.96Z" stroke="#D45064" stroke-linecap="round" stroke-linejoin="round"/>
<g opacity="0.25">
<path d="M306.503 256.665C304.185 249.548 291.983 226.733 281.468 222.315C278.55 221.093 256.238 260.527 257.288 262.237C259.988 266.647 296.933 265.613 302.783 264.69C307.613 263.933 307.41 259.44 306.503 256.665ZM279.608 256.5C277.875 256.583 276.953 255.338 276.87 253.973C276.788 252.608 278.385 250.965 279.413 250.965C280.515 250.965 282.42 252.195 282.405 253.905C282.398 254.82 281.34 256.425 279.608 256.508V256.5ZM281.228 247.44C280.965 248.318 278.37 248.49 278.25 247.688C277.913 245.385 277.635 239.01 277.928 235.793C278.055 234.405 282.338 233.64 282.398 235.268C282.533 238.853 281.835 245.363 281.22 247.44H281.228Z" fill="#D45064"/>
</g>
<path opacity="0.16" d="M71.1224 306.443C14.8574 311.07 -4.73256 318.353 170.94 321.608C200.317 322.155 199.785 350.16 259.065 350.528C274.177 350.618 354.9 348.443 356.242 338.46C356.715 334.928 343.29 332.303 327.18 331.095C327.532 334.215 334.755 337.755 332.422 339.113C326.557 342.525 313.14 342.885 305.002 342.9C302.07 342.9 300.78 337.53 297.922 337.537C281.092 337.56 268.02 338.52 267.097 338.355C264.667 337.935 268.672 343.275 263.61 344.4C253.372 346.68 237.772 347.82 233.707 344.662C232.695 343.875 232.08 333.743 231.555 332.13C230.715 332.46 206.182 335.1 202.762 332.325C200.347 330.368 199.815 317.678 200.67 315.743C190.365 315.705 83.5949 314.73 78.1949 312.412C75.7649 311.37 71.3099 309.165 71.1149 306.443H71.1224Z" fill="#4C545B"/>
</g>
<defs>
<clipPath id="clip0_210_278">
<rect width="384" height="384" fill="white"/>
</clipPath>
</defs>
</svg>
